<mxfile host="65bd71144e">
    <diagram id="gbRmSbht5S4zL4gYXWnn" name="Page-1">
        <mxGraphModel dx="1079" dy="747" grid="1" gridSize="10" guides="1" tooltips="1" connect="1" arrows="1" fold="1" page="1" pageScale="1" pageWidth="850" pageHeight="1100" math="0" shadow="0">
            <root>
                <mxCell id="0"/>
                <mxCell id="1" parent="0"/>
                <mxCell id="2" value="" style="rounded=1;whiteSpace=wrap;html=1;" vertex="1" parent="1">
                    <mxGeometry x="20" y="243" width="900" height="556" as="geometry"/>
                </mxCell>
                <mxCell id="3" value="Block diagram" style="text;html=1;strokeColor=none;fillColor=none;align=center;verticalAlign=middle;whiteSpace=wrap;rounded=0;fontSize=19;fontStyle=1" vertex="1" parent="1">
                    <mxGeometry x="390" y="264" width="160" height="30" as="geometry"/>
                </mxCell>
                <mxCell id="4" value="Web UI" style="rounded=0;whiteSpace=wrap;html=1;align=center;fontStyle=1;fontSize=16;" vertex="1" parent="1">
                    <mxGeometry x="140" y="340" width="180" height="50" as="geometry"/>
                </mxCell>
                <mxCell id="5" value="&lt;ul style=&quot;font-size: 14px;&quot;&gt;&lt;li&gt;authentication&lt;/li&gt;&lt;li&gt;explore problems&lt;/li&gt;&lt;li&gt;view problem&lt;/li&gt;&lt;li&gt;upload solution&lt;/li&gt;&lt;li style=&quot;border-color: var(--border-color);&quot;&gt;submission results&lt;/li&gt;&lt;/ul&gt;" style="rounded=0;whiteSpace=wrap;html=1;fontSize=16;align=left;" vertex="1" parent="1">
                    <mxGeometry x="140" y="390" width="180" height="150" as="geometry"/>
                </mxCell>
                <mxCell id="6" value="VSCode workspace" style="rounded=0;whiteSpace=wrap;html=1;align=center;fontStyle=1;fontSize=16;" vertex="1" parent="1">
                    <mxGeometry x="590" y="340" width="180" height="50" as="geometry"/>
                </mxCell>
                <mxCell id="7" value="&lt;ul style=&quot;font-size: 14px;&quot;&gt;&lt;li&gt;personal workspace for each user&lt;/li&gt;&lt;li&gt;50MB of storage&lt;/li&gt;&lt;li&gt;pre-installed checker extension&lt;/li&gt;&lt;/ul&gt;" style="rounded=0;whiteSpace=wrap;html=1;fontSize=16;align=left;" vertex="1" parent="1">
                    <mxGeometry x="590" y="390" width="180" height="150" as="geometry"/>
                </mxCell>
                <mxCell id="8" value="Checker" style="rounded=0;whiteSpace=wrap;html=1;align=center;fontStyle=1;fontSize=16;" vertex="1" parent="1">
                    <mxGeometry x="370" y="630" width="180" height="50" as="geometry"/>
                </mxCell>
                <mxCell id="13" value="" style="endArrow=none;html=1;fontSize=14;exitX=1;exitY=0.25;exitDx=0;exitDy=0;entryX=0;entryY=0.25;entryDx=0;entryDy=0;" edge="1" parent="1" source="5" target="7">
                    <mxGeometry width="50" height="50" relative="1" as="geometry">
                        <mxPoint x="490" y="490" as="sourcePoint"/>
                        <mxPoint x="540" y="440" as="targetPoint"/>
                    </mxGeometry>
                </mxCell>
                <mxCell id="14" value="" style="endArrow=none;html=1;fontSize=14;exitX=0.25;exitY=0;exitDx=0;exitDy=0;entryX=1;entryY=1;entryDx=0;entryDy=0;" edge="1" parent="1" source="8" target="5">
                    <mxGeometry width="50" height="50" relative="1" as="geometry">
                        <mxPoint x="490" y="490" as="sourcePoint"/>
                        <mxPoint x="540" y="440" as="targetPoint"/>
                    </mxGeometry>
                </mxCell>
                <mxCell id="15" value="" style="endArrow=none;html=1;fontSize=14;entryX=0.75;entryY=0;entryDx=0;entryDy=0;exitX=0;exitY=1;exitDx=0;exitDy=0;" edge="1" parent="1" source="7" target="8">
                    <mxGeometry width="50" height="50" relative="1" as="geometry">
                        <mxPoint x="490" y="490" as="sourcePoint"/>
                        <mxPoint x="540" y="440" as="targetPoint"/>
                    </mxGeometry>
                </mxCell>
            </root>
        </mxGraphModel>
    </diagram>
</mxfile>